<svg xmlns="http://www.w3.org/2000/svg" width="52" height="52" fill="none" viewBox="0 0 52 52"><rect width="52" height="52" fill="#fff" rx="26"/><path fill="#316dc2" d="M11.918 19.8c-.851.607-1.35 1.892-.41 3.428.942 1.537 14.385 11.906 14.878 12.194s.986.336 2.24-.672 11.74-8.884 12.01-9.121c.43-.377.537-1.297 0-1.729 0 0-12.701 9.505-13.117 9.89-.416.383-1.063-.24-.941-1.056s.211-.913 1.825-2.16a2566 2566 0 0 1 11.174-8.488c.47-.347.481-.96-.288-1.503a5178 5178 0 0 1-13.022-9.266c-.388-.288-.925-.55-1.731.026-.807.576-11.053 7.343-12.618 8.458"/><path fill="#316dc2" d="M26.386 36.433c-.324-.189-6.222-4.718-10.506-8.244v7.352c-.004 5.367 15.117 8.235 20.126 1.637v-7.027c-3.077 2.325-6.677 5.046-7.38 5.61-1.254 1.008-1.747.96-2.24.672"/><path fill="#98b8e6" d="M32.785 28.372s2.248 1.13 2.408 5.679l-1.09-.3-.871 1.85c-.369-4.98-2.376-5.703-2.376-5.703z"/></svg>
