<svg xmlns="http://www.w3.org/2000/svg" width="13" height="22" fill="none" viewBox="0 0 13 22"><path fill="currentColor" d="M6.5 3.328c1.323 0 2.399 1.055 2.399 2.351 0 1.293-1.076 2.348-2.399 2.348S4.101 6.972 4.101 5.679c0-1.296 1.076-2.351 2.399-2.351m0 8.027c3.196 0 5.794-2.547 5.794-5.676C12.294 2.547 9.696 0 6.5 0S.71 2.547.71 5.68c0 3.128 2.594 5.675 5.79 5.675m2.343 4.633a11 11 0 0 0 3.363-1.368 1.644 1.644 0 0 0 .534-2.292 1.715 1.715 0 0 0-2.343-.524 7.49 7.49 0 0 1-7.798 0 1.71 1.71 0 0 0-2.339.524 1.644 1.644 0 0 0 .534 2.292 11 11 0 0 0 3.363 1.368l-3.24 3.171a1.64 1.64 0 0 0 0 2.352 1.727 1.727 0 0 0 2.403 0l3.18-3.117 3.184 3.117a1.715 1.715 0 0 0 2.399 0 1.64 1.64 0 0 0 0-2.352z"/></svg>