<svg xmlns="http://www.w3.org/2000/svg" width="20" height="21" fill="none" viewBox="0 0 20 21"><path fill="currentColor" d="M11.945 0c-.641 0-1.243.342-1.629.834-.386.493-.599 1.093-.754 1.726-.246 1.018-.322 2.147-.34 3.165-1.803.126-3.435.686-4.79 1.553-.55-.485-1.213-.755-1.848-.748-.724.007-1.41.335-1.921 1.007-.976 1.284-.864 3.384.267 4.632-.07.384-.122.78-.122 1.179C.808 17.577 4.924 21 10 21s9.192-3.427 9.192-7.652c0-.4-.052-.795-.122-1.18 1.13-1.247 1.243-3.347.267-4.631-.51-.672-1.197-1-1.92-1.007-.636-.007-1.298.263-1.849.748-1.35-.863-2.972-1.424-4.766-1.553.025-.939.089-1.913.268-2.647.112-.46.246-.795.389-.978s.246-.259.486-.259c.52 0 .587.176.9.604.158.216.34.486.632.748.292.263.724.49 1.192.49V1.84c-.131 0-.155-.004-.243-.086-.089-.083-.21-.273-.39-.518C13.679.744 12.983 0 11.947 0m5.058.173c-1.21 0-2.188 1.157-2.188 2.589 0 1.43.978 2.589 2.188 2.589s2.189-1.158 2.189-2.59c0-1.43-.98-2.588-2.189-2.588m0 .92c.778 0 1.41.748 1.41 1.669 0 .92-.632 1.668-1.41 1.668s-1.41-.748-1.41-1.668.632-1.669 1.41-1.669M10 7.163c4.307 0 7.951 2.837 7.951 6.185 0 3.351-3.644 6.185-7.951 6.185s-7.951-2.834-7.951-6.185C2.049 10 5.693 7.163 10 7.163m-7.392.834c.216.004.44.061.656.173-.78.701-1.4 1.507-1.823 2.416-.292-.712-.213-1.6.146-2.07a1.24 1.24 0 0 1 1.02-.519m14.784 0c.398-.003.76.173 1.021.518.36.471.438 1.36.146 2.071-.422-.91-1.042-1.715-1.823-2.416a1.5 1.5 0 0 1 .656-.173M6.888 10.3c-.779 0-1.41.748-1.41 1.668s.631 1.669 1.41 1.669 1.41-.748 1.41-1.669c0-.92-.632-1.668-1.41-1.668m6.225 0c-.779 0-1.41.748-1.41 1.668s.631 1.669 1.41 1.669 1.41-.748 1.41-1.669c0-.92-.632-1.668-1.41-1.668m-6.98 5.667c.496 1.212 2.028 2.387 3.867 2.387s3.395-1.175 3.89-2.387c-.9.687-2.319 1.15-3.89 1.15s-2.967-.463-3.866-1.15"/></svg>
