<svg xmlns="http://www.w3.org/2000/svg" viewBox="0 0 305 347" preserveAspectRatio="none">
  <path fill="#fff" d="M0 12C0 5.37258 5.37258 0 12 0H68C74.6274 0 80 5.37258 80 12V28H0V12Z"/>
  <path fill="#fff" d="M90 28C84.4771 28 80 23.5229 80 18V28H90Z"/>
  <path fill="#fff" d="M0 28H274C282.837 28 290 35.1634 290 44V152C290 160.837 282.837 168 274 168H0V28Z"/>
  <path fill="#fff" d="M275 168C270.582 168 267 172.477 267 178V168H275Z"/>
  <path fill="#fff" d="M0 168H267V269C267 276.732 260.732 283 253 283H0V168Z"/>
  <path fill="#fff" d="M194 283C188.477 283 184 287.477 184 293V283H194Z"/>
  <path fill="#fff" d="M0 283H184V333C184 340.732 177.732 347 170 347H14C6.26801 347 0 340.732 0 333V283Z"/>
</svg>
