<svg xmlns="http://www.w3.org/2000/svg" viewBox="0 0 659 317" preserveAspectRatio="none">
  <path fill="#fff" d="M0 20C0 8.95431 8.95431 0 20 0H80C91.0457 0 100 8.95431 100 20V40H0V20Z"/>
  <path fill="#fff" d="M120 40C108.954 40 100 31.0457 100 20V40H120Z"/>
  <path fill="#fff" d="M0 40H629C645.569 40 659 53.4315 659 70V152C659 168.569 645.569 182 629 182H0V40Z"/>
  <path fill="#fff" d="M0 182H593V287C593 303.569 579.569 317 563 317H30C13.4315 317 0 303.569 0 287V182Z"/>
  <path fill="#fff" d="M619 182C604.641 182 593 193.641 593 208V182H619Z"/>
</svg>
