<svg xmlns="http://www.w3.org/2000/svg" viewBox="0 0 968 347" preserveAspectRatio="none">
  <path fill="#fff" d="M0 20C0 8.95431 8.95431 0 20 0H80C91.0457 0 100 8.95431 100 20V40H0V20Z"/>
  <path fill="#fff" d="M120 40C108.954 40 100 31.0457 100 20V40H120Z"/>
  <path fill="#fff" d="M0 40H938C954.569 40 968 53.4315 968 70V204C968 220.569 954.569 234 938 234H0V40Z"/>
  <path fill="#fff" d="M0 234H775V317C775 333.569 761.569 347 745 347H30C13.4315 347 0 333.569 0 317V234Z"/>
  <path fill="#fff" d="M801 234C786.641 234 775 245.641 775 260V234H801Z"/>
</svg>
