<svg xmlns="http://www.w3.org/2000/svg" viewBox="0 0 256 177" preserveAspectRatio="none"><g clip-path="url(#a)"><path fill="#f0efe9" d="M16 16C7.163 16 0 8.837 0 0v16z"/></g><path fill="#f0efe9" d="M0 16h63c6.627 0 12 5.373 12 12v18H0z"/><g clip-path="url(#b)"><path fill="#f0efe9" d="M91 46c-8.837 0-16-7.163-16-16v16z"/></g><path fill="#f0efe9" d="M0 46h195c6.627 0 12 5.373 12 12v52H0z"/><g clip-path="url(#c)"><path fill="#f0efe9" d="M223 110c-8.837 0-16-7.163-16-16v16z"/></g><path fill="#f0efe9" d="M0 110h228c6.627 0 12 5.373 12 12v55H12c-6.627 0-12-5.373-12-12z"/><g clip-path="url(#d)"><path fill="#f0efe9" d="M256 177c-8.837 0-16-7.163-16-16v16z"/></g><defs><clipPath id="a"><path fill="#fff" d="M0 0h16v16H0z"/></clipPath><clipPath id="b"><path fill="#fff" d="M75 30h16v16H75z"/></clipPath><clipPath id="c"><path fill="#fff" d="M207 94h16v16h-16z"/></clipPath><clipPath id="d"><path fill="#fff" d="M240 161h16v16h-16z"/></clipPath></defs></svg>
