<svg xmlns="http://www.w3.org/2000/svg" viewBox="0 0 256 175" preserveAspectRatio="none"><g clip-path="url(#clip0_2369_2774)"><path fill="#f0efe9" d="M16 16C7.16344 16 0 8.83656 0 0V16H16Z"/></g><path fill="#f0efe9" d="M0 16H67C73.6274 16 79 21.3726 79 28V46H0V16Z"/><g clip-path="url(#clip1_2369_2774)"><path fill="#f0efe9" d="M95 46C86.1634 46 79 38.8366 79 30V46H95Z"/></g><path fill="#f0efe9" d="M0 46H178C184.627 46 190 51.3726 190 58V112H0V46Z"/><g clip-path="url(#clip2_2369_2774)"><path fill="#f0efe9" d="M206 112C197.163 112 190 104.837 190 96V112H206Z"/></g><path fill="#f0efe9" d="M0 112H228C234.627 112 240 117.373 240 124V175H12C5.37259 175 0 169.627 0 163V112Z"/><g clip-path="url(#clip4_2369_2774)"><path fill="#f0efe9" d="M256 175C247.163 175 240 167.837 240 159V175H256Z"/></g><defs><clipPath id="clip0_2369_2774"><rect width="16" height="16" fill="#fff"/></clipPath><clipPath id="clip1_2369_2774"><rect width="16" height="16" fill="#fff" transform="translate(79 30)"/></clipPath><clipPath id="clip2_2369_2774"><rect width="16" height="16" fill="#fff" transform="translate(190 96)"/></clipPath><clipPath id="clip4_2369_2774"><rect width="16" height="16" fill="#fff" transform="translate(240 159)"/></clipPath></defs></svg>
